<?xml version="1.0" standalone="no"?>
<!DOCTYPE svg PUBLIC "-//W3C//DTD SVG 1.1//EN" "http://www.w3.org/Graphics/SVG/1.1/DTD/svg11.dtd" >
<svg xmlns="http://www.w3.org/2000/svg">
<metadata>
Created by FontForge 20120731 at Tue Jun 21 10:17:54 2016
 By admin
</metadata>
<defs>
<font id="iconfont" horiz-adv-x="1024" >
  <font-face 
    font-family="iconfont"
    font-weight="500"
    font-stretch="normal"
    units-per-em="1024"
    panose-1="2 0 6 3 0 0 0 0 0 0"
    ascent="896"
    descent="-128"
    x-height="792"
    bbox="0 -212 1024 896"
    underline-thickness="50"
    underline-position="-100"
    unicode-range="U+0078-E611"
  />
<missing-glyph horiz-adv-x="374" 
d="M34 0v682h272v-682h-272zM68 34h204v614h-204v-614z" />
    <glyph glyph-name=".notdef" horiz-adv-x="374" 
d="M34 0v682h272v-682h-272zM68 34h204v614h-204v-614z" />
    <glyph glyph-name=".null" horiz-adv-x="0" 
 />
    <glyph glyph-name="nonmarkingreturn" horiz-adv-x="341" 
 />
    <glyph glyph-name="x" unicode="x" horiz-adv-x="1001" 
d="M281 543q-27 -1 -53 -1h-83q-18 0 -36.5 -6t-32.5 -18.5t-23 -32t-9 -45.5v-76h912v41q0 16 -0.5 30t-0.5 18q0 13 -5 29t-17 29.5t-31.5 22.5t-49.5 9h-133v-97h-438v97zM955 310v-52q0 -23 0.5 -52t0.5 -58t-10.5 -47.5t-26 -30t-33 -16t-31.5 -4.5q-14 -1 -29.5 -0.5
t-29.5 0.5h-32l-45 128h-439l-44 -128h-29h-34q-20 0 -45 1q-25 0 -41 9.5t-25.5 23t-13.5 29.5t-4 30v167h911zM163 247q-12 0 -21 -8.5t-9 -21.5t9 -21.5t21 -8.5q13 0 22 8.5t9 21.5t-9 21.5t-22 8.5zM316 123q-8 -26 -14 -48q-5 -19 -10.5 -37t-7.5 -25t-3 -15t1 -14.5
t9.5 -10.5t21.5 -4h37h67h81h80h64h36q23 0 34 12t2 38q-5 13 -9.5 30.5t-9.5 34.5q-5 19 -11 39h-368zM336 498v228q0 11 2.5 23t10 21.5t20.5 15.5t34 6h188q31 0 51.5 -14.5t20.5 -52.5v-227h-327z" />
    <glyph glyph-name="uniE600" unicode="&#xe600;" horiz-adv-x="1000" 
d="M668 471q14 0 30 -2q-20 94 -109 155.5t-203 61.5q-128 0 -218.5 -76.5t-90.5 -185.5q0 -123 124 -209l-31 -93l108 54q78 -15 108 -15q13 0 29 1q-9 33 -9 65q0 101 76 172.5t186 71.5zM502 555q18 0 28.5 -10.5t10.5 -28t-10.5 -28t-28.5 -10.5t-32 11t-14 27.5
t14 27.5t32 11zM286 478q-18 0 -32.5 11t-14.5 27.5t14.5 27.5t32.5 11q17 0 27.5 -10.5t10.5 -28t-10.5 -28t-27.5 -10.5zM950 230q0 92 -78.5 158.5t-183.5 66.5q-110 0 -186.5 -66t-76.5 -159t76.5 -158.5t186.5 -65.5q31 0 92 16l85 -47l-23 77q108 82 108 178zM603 269
q-12 0 -21.5 9.5t-9.5 21.5t9.5 21.5t21.5 9.5q16 0 27 -9.5t11 -21.5t-11 -21.5t-27 -9.5zM773 269q-12 0 -21.5 9.5t-9.5 21.5t9.5 21.5t21.5 9.5q16 0 27 -9.5t11 -21.5t-11 -21.5t-27 -9.5z" />
    <glyph glyph-name="uniE601" unicode="&#xe601;" 
d="M512.5 681q-103.5 0 -191.5 -51t-139 -139t-51 -191.5t51 -191.5t139 -139t191.5 -51t191.5 51t139 139t51 191.5t-51 191.5t-139 139t-191.5 51zM703 258h-202q-7 0 -13 2q-19 8 -19 29v203q0 13 9.5 22t22.5 9t22 -9t9 -22v-172h171q13 0 22.5 -9t9.5 -22t-9.5 -22
t-22.5 -9z" />
    <glyph glyph-name="uniE602" unicode="&#xe602;" 
d="M733 -125q10 10 10 25t-10 26l-372 369l370 374q11 10 11 25t-11 25.5t-25.5 10.5t-25.5 -11l-394 -397v-2h-1h-1v-1q-10 -10 -10 -25t11 -25l397 -394q11 -11 25.5 -11t25.5 11zM733 -125z" />
    <glyph glyph-name="uniE603" unicode="&#xe603;" 
d="M514.5 -81q-93.5 0 -178.5 36.5t-146.5 98t-98 146.5t-36.5 178.5t36.5 178.5t98 146.5t146.5 98t178.5 36.5t178.5 -36.5t146.5 -98t98 -146.5t36.5 -178.5t-36.5 -178.5t-98 -146.5t-146.5 -98t-178.5 -36.5zM514.5 806q-115.5 0 -214 -57.5t-156 -156t-57.5 -214
t57.5 -214t156 -156t214 -57.5t214 57.5t156 156t57.5 214t-57.5 214t-156 156t-214 57.5zM752 384h-256v240q0 7 -4.5 11.5t-11.5 4.5t-11.5 -4.5t-4.5 -11.5v-256q0 -7 4.5 -11.5t11.5 -4.5h272q7 0 11.5 4.5t4.5 11.5t-4.5 11.5t-11.5 4.5z" />
    <glyph glyph-name="uniE604" unicode="&#xe604;" 
d="M605 -142q-94 -19 -188 1q-91 20 -169 77q-75 54 -123 136t-58 174q-11 95 16.5 186t89 162.5t147.5 112.5t180 44q95 3 185 -33q84 -34 151 -102q66 -66 100 -155t29 -183q-4 -90 -43 -173q-7 -13 5 -20q5 -3 11.5 -1.5t9.5 6.5q42 89 47 188t-30 192q-34 89 -100.5 160
t-153.5 110q-90 39 -189.5 40.5t-190.5 -35.5q-90 -37 -158 -106q-67 -67 -105 -159q-37 -91 -34.5 -190t43.5 -189q39 -87 110.5 -153t161.5 -100q126 -47 264 -19q5 1 8.5 6.5t1.5 11.5q-4 14 -18 11zM704 -154q-5 0 -10 2q-10 6 -10 18v260q0 12 10.5 18t21.5 0l201 -130
q10 -6 10 -17.5t-10 -17.5l-201 -130q-6 -3 -12 -3v0zM725 88v-184l143 92l-143 92v0zM725 88zM516 279q-11 0 -17 9q-5 7 -4 15.5t8 13.5l141 99q7 5 15.5 3.5t13.5 -8.5t3.5 -15.5t-8.5 -13.5l-140 -99q-6 -4 -12 -4zM516 279q-9 0 -15 6t-6 15v238q0 8 6 14.5t14.5 6.5
t14.5 -6.5t6 -14.5v-238q0 -9 -6 -15t-14 -6z" />
    <glyph glyph-name="uniE605" unicode="&#xe605;" 
d="M289 55h452v349h-452v-349zM639 363h61v-61h-61v61zM639 261h61v-62h-61v62zM639 158h61v-62h-61v62zM536 363h61v-61h-61v61zM536 261h61v-62h-61v62zM536 158h61v-62h-61v62zM433 363h62v-61h-62v61zM433 261h62v-62h-62v62zM433 158h62v-62h-62v62zM330 363h62v-61
h-62v61zM330 261h62v-62h-62v62zM330 158h62v-62h-62v62zM515 773q-98 0 -187 -38.5t-154 -103t-103 -153.5t-38 -187.5t38 -187.5t103 -153.5t154 -103t187 -38.5t187.5 38.5t154 103t102.5 153.5t38 187.5t-38 187.5t-102.5 153.5t-154 103t-187.5 38.5zM597 570
q0 16 12 28t29 12t28.5 -12t11.5 -28v-43q0 -17 -11.5 -28.5t-28.5 -11.5t-29 11.5t-12 28.5v43zM351 570q0 16 12 28t28.5 12t28.5 -12t12 -28v-43q0 -17 -12 -28.5t-28.5 -11.5t-28.5 11.5t-12 28.5v43zM782 55q0 -17 -12 -29t-29 -12h-452q-17 0 -29 12t-12 29v452
q0 17 12 29t29 12h41v-20q0 -26 18 -44t43.5 -18t44 18t18.5 44v20h123v-20q0 -26 18 -44t43.5 -18t43.5 18t18 44v20h41q17 0 29 -12t12 -29v-452z" />
    <glyph glyph-name="uniE606" unicode="&#xe606;" 
d="M508.5 747q-90.5 0 -173.5 -35.5t-142.5 -95t-95 -142t-35.5 -173.5t35.5 -173.5t95 -142.5t142.5 -95t173.5 -35t173 35t142.5 95t95.5 142.5t35.5 173.5t-35.5 173.5t-95.5 142t-142.5 95t-173 35.5zM531 38q-32 -6 -75 9t-78.5 48.5t-45 85.5t24.5 121q4 6 10.5 17.5
t23 44t29 63.5t21.5 70t7 69q2 -2 5.5 -4.5t12.5 -11t17.5 -18t20 -24t20.5 -29.5t17 -34.5t12 -38.5t3 -41.5t-7 -44.5q3 2 8.5 5t20 14.5t26 23.5t21.5 31t11 38l6 -12q5 -12 12 -32t15 -47t12 -56.5t5 -61t-7.5 -61t-25 -54t-47.5 -43.5t-75 -27z" />
    <glyph glyph-name="uniE607" unicode="&#xe607;" 
d="M510.5 -212q-103.5 0 -191.5 51.5t-139.5 139.5t-51.5 192v191h765v-191q0 -104 -51 -192t-139.5 -139.5t-192 -51.5zM192 298v-127q0 -87 42.5 -160.5t116 -116t160 -42.5t160 42.5t116 116t42.5 160.5v127h-637zM510.5 -53q-39.5 0 -67.5 28t-28 67v65q0 39 28 67
t67.5 28t67.5 -28t28 -67v-65q0 -39 -28 -67t-67.5 -28zM510.5 139q-13.5 0 -22.5 -9.5t-9 -22.5v-64q0 -13 9 -22.5t22.5 -9.5t22.5 9.5t9 22.5v64q0 13 -9 22.5t-22.5 9.5zM766 426h-64v137q0 75 -56 128t-135.5 53t-135.5 -53t-56 -128v-137h-63v137q0 101 74.5 173
t180 72t180.5 -72t75 -173v-137z" />
    <glyph glyph-name="uniE608" unicode="&#xe608;" 
d="M815 48l1 1l-249 248l249 250l-27 26l-230 230h-1h-7h-30v-460l-232 232l-26 -27l251 -251l-246 -246l27 -27l226 227v-459h38v1zM559 750l204 -203l-204 -205v408zM559 253l204 -204l-204 -203v407zM521 803h38v-3h-38v3z" />
    <glyph glyph-name="uniE609" unicode="&#xe609;" 
d="M281.5 351q-31.5 0 -54 22.5t-22.5 54.5t22.5 54.5t54 22.5t54.5 -22.5t23 -54.5t-23 -54.5t-54.5 -22.5zM281.5 454q-10.5 0 -18 -7.5t-7.5 -18.5t7.5 -18.5t18 -7.5t18 7.5t7.5 18.5t-7.5 18.5t-18 7.5zM486 -58q-10 0 -17.5 7.5t-7.5 17.5v154q0 29 19.5 55t48.5 35
l76 22l-167 111l-87 -88q-8 -7 -18 -7h-103q-10 0 -17.5 7.5t-7.5 18t7.5 18t17.5 7.5h92l95 95q15 15 32 3l188 -125q31 -21 27 -49.5t-41 -38.5l-80 -24q-12 -3 -21.5 -15.5t-9.5 -24.5v-154q0 -10 -7.5 -17.5t-18.5 -7.5zM768 -212q-85 0 -145 60t-60 145t60 145t145 60
t145 -60t60 -145t-60 -145t-145 -60zM768 146q-64 0 -109 -45t-45 -108.5t45 -108.5t109 -45t109 45t45 108.5t-45 108.5t-109 45zM204.5 -212q-84.5 0 -144.5 60t-60 144.5t60 144.5t144.5 60t144.5 -60t60 -144.5t-60 -144.5t-144.5 -60zM204.5 146q-63.5 0 -108.5 -45
t-45 -108.5t45 -108.5t108.5 -45t108.5 45t45 108.5t-45 108.5t-108.5 45z" />
    <glyph glyph-name="uniE60A" unicode="&#xe60a;" 
d="M491 84q-43 -44 -104.5 -44t-105 43.5t-43.5 105t43.5 104.5t105 43t105 -43t43.5 -104.5t-44 -104.5v0zM459 261q-30 30 -72.5 30t-72.5 -30t-30 -72.5t30 -72.5t72.5 -30t72.5 30t30 72.5t-30 72.5v0zM150 -48q-64 64 -87 152l-1 5h55l1 -3q20 -67 70 -116
q82 -82 198.5 -82t198.5 82q61 61 77 144t-17 163l-24 47l168 172l35 -35q6 -6 13.5 -6t13 5.5t5.5 13.5t-5 14l-35 35l75 75q13 10 12.5 29.5t-19.5 37.5q-12 12 -27 15.5t-25 0.5t-16 -9l-268 -267l-53 22q-79 33 -162.5 17t-144.5 -77q-43 -43 -64 -101l-1 -2h-57l2 5
q24 78 82 136q77 76 183 93t202 -31l244 245q16 16 40 22.5t53.5 -1t53.5 -31.5q30 -29 31 -69.5t-31 -75.5l-35 -34q19 -22 18.5 -50.5t-21 -49t-49.5 -21.5t-50 19l-104 -104q49 -97 31.5 -203t-93.5 -182q-64 -64 -150.5 -87t-172.5 0t-150 87zM456 258z" />
    <glyph glyph-name="uniE60B" unicode="&#xe60b;" 
d="M405 801h190v-48h-190v48zM524 -18q-32 0 -55 23.5t-23 56t23 56t55 23.5t54.5 -23.5t22.5 -56t-22.5 -56t-54.5 -23.5zM524 110q-20 0 -34 -14t-14 -34.5t14 -34.5t34 -14t34 14t14 34.5t-14 34.5t-34 14zM738 -104h-24v47q72 0 72 72v762q0 41 -9 56t-39 15h-452
q-30 0 -39 -15t-9 -56v-762q0 -72 72 -72h333l-1 -6v1l49 -42l-48 -24l-24 24h-333q-37 0 -66 31t-29 78v792q0 41 25 70t60 29h472q35 0 60 -29t25 -70v-792q0 -41 -29.5 -75t-65.5 -34z" />
    <glyph glyph-name="uniE60C" unicode="&#xe60c;" 
d="M547 827h139q14 0 24 10t10 24t-10 24t-24 10h-348q-14 0 -24 -10t-10 -24t10 -24t24 -10h139v-68l1 -1v-1q-115 -8 -211 -68.5t-151 -159t-55 -213.5q0 -90 35.5 -172.5t96 -141.5t144 -94t175.5 -35t175.5 35t144 94t96 141.5t35.5 172.5q0 115 -55 213.5t-151 159
t-211 68.5zM512 214q-43 0 -73.5 29.5t-30.5 72.5q0 33 19.5 59t49.5 37v177q0 14 10.5 24t24.5 10t24.5 -10t10.5 -24v-177q30 -11 49.5 -37t19.5 -59q0 -43 -30.5 -72.5t-73.5 -29.5z" />
    <glyph glyph-name="uniE60D" unicode="&#xe60d;" 
d="M743 568q-6 0 -11 4q-12 10 -1 23l22 26q4 5 11 5.5t12 -4.5q12 -10 2 -23l-23 -26q-5 -5 -12 -5zM794 575q-6 0 -11 5l-44 40q-12 11 -1 23t23 1l44 -41q12 -11 1 -22q-5 -6 -12 -6zM512 1q-91 0 -168 45t-122 122t-45 168t45 168t122 122t168 45t168 -45t122 -122
t45 -168t-45 -168t-122 -122t-168 -45zM512 639q-125 0 -213.5 -89t-88.5 -214t88.5 -213.5t213.5 -88.5t213.5 88.5t88.5 213.5t-88.5 214t-213.5 89zM512 321q-7 0 -11.5 5t-4.5 12v200q0 7 4.5 11.5t11.5 4.5t11.5 -4.5t4.5 -11.5v-200q0 -7 -4.5 -12t-11.5 -5zM512 577
q-7 0 -11.5 4.5t-4.5 11.5v11q0 7 4.5 11.5t11.5 4.5t11.5 -4.5t4.5 -11.5v-11q0 -7 -4.5 -11.5t-11.5 -4.5zM512 52q-7 0 -11.5 5t-4.5 12v10q0 7 4.5 11.5t11.5 4.5t11.5 -4.5t4.5 -11.5v-10q0 -7 -4.5 -12t-11.5 -5zM780 320h-11q-7 0 -11.5 5t-4.5 11.5t4.5 11t11.5 4.5
h11q6 0 11 -4.5t5 -11t-5 -11.5t-11 -5zM255 320h-11q-6 0 -11 5t-5 11.5t5 11t11 4.5h11q7 0 11.5 -4.5t4.5 -11t-4.5 -11.5t-11.5 -5zM600 734h-176q-7 0 -11.5 5t-4.5 11.5t4.5 11.5t11.5 5h176q7 0 11.5 -5t4.5 -11.5t-4.5 -11.5t-11.5 -5zM512 640q-7 0 -11.5 5
t-4.5 11v75q0 7 4.5 12t11.5 5t11.5 -5t4.5 -12v-75q0 -6 -4.5 -11t-11.5 -5z" />
    <glyph glyph-name="uniE60E" unicode="&#xe60e;" 
d="M0 349q9 -125 73.5 -230.5t170 -170.5t230.5 -73v143h73v-143q125 8 230.5 73t170.5 170.5t73 230.5h-143v73h143q-8 125 -73 230.5t-170.5 170t-230.5 73.5v-145h-73v145q-125 -9 -230.5 -73.5t-170 -170t-73.5 -230.5h145v-73h-145v0v0v0v0v0zM591 429l4 -2v-1
q25 -26 25 -62.5t-25.5 -62t-62 -25.5t-62.5 25h-1l-2 4q-11 11 -17 25l-195 311l311 -195q14 -6 25 -17v0v0v0v0v0z" />
    <glyph glyph-name="uniE60F" unicode="&#xe60f;" 
d="M214 435q44 0 83 -17t67 -44q30 -29 46 -67.5t16 -84.5q0 -44 -16 -83t-46 -67q-28 -30 -67 -46q-38 -16 -83 -16q-46 0 -84.5 16t-67.5 46q-28 28 -44 67q-17 39 -17 83q0 46 17 85t44 66q29 29 67 45q40 17 85 17zM214 74q30 0 57 12t47 32t32 47t12 57q0 32 -12 59
t-32 46.5t-47 32.5q-27 11 -57 11q-32 0 -59 -12t-47 -31.5t-32 -46.5t-12 -59q0 -30 12 -57t32 -47t47 -32t59 -12zM558 627l-98 -98l94 -72v-277h-76v213l-146 84q-8 6 -14 13t-10 15.5t-7 17.5q-3 10 -3 18q0 16 6 29t16 23l158 158q10 10 23 16t29 6q10 0 20 -3
q11 -3 18 -7q8 -4 14 -11q6 -6 12 -15l80 -140h136v-76h-178zM810 435q45 0 84.5 -17t66.5 -44q29 -29 45 -67q17 -39 17 -85q0 -45 -17 -83q-17 -39 -45 -67q-28 -30 -66 -46q-39 -16 -85 -16q-44 0 -83 16t-67 46q-30 28 -46 67t-16 83q0 46 16 84.5t46 66.5q28 29 67 45
q39 17 83 17zM682 743q-16 0 -30 6t-24 16t-16 24t-6 30t6 30t16 24t24 16t30 6t30 -6t26 -16q10 -10 16 -24t6 -30t-6 -30t-16 -24q-12 -10 -26 -16t-30 -6zM810 74q32 0 59 12t46.5 32t32 47t12.5 57q0 32 -12 59q-12 26 -32 46t-47 33q-27 11 -59 11q-30 0 -57 -12
t-47 -31.5t-32 -46.5t-12 -59q0 -30 12 -57t32 -47t47 -32t57 -12z" />
    <glyph glyph-name="uniE610" unicode="&#xe610;" 
d="M1024 384q0 139 -68.5 257t-186.5 186.5t-257 68.5t-257 -68.5t-186.5 -186.5t-68.5 -257t68.5 -257t186.5 -186.5t257 -68.5t257 68.5t186.5 186.5t68.5 257zM186 384h-23h-23q0 101 49.5 187t135.5 135.5t187 49.5t187 -49.5t135.5 -135.5t49.5 -187h-23h-23
q0 89 -43.5 164t-118.5 118.5t-164 43.5t-164 -43.5t-118.5 -118.5t-43.5 -164zM618 605l-18 -359l-66 -114l-23 130z" />
    <glyph glyph-name="uniE611" unicode="&#xe611;" 
d="M314 286q-31 0 -53 -22t-22 -53t22 -53t53 -22t53 22t22 53t-22 53t-53 22zM695 286q-31 0 -53 -22t-22 -53t22 -53t53 -22t53 22t22 53t-22 53t-53 22zM504.5 880q-102.5 0 -196 -40t-161 -107.5t-107 -161t-39.5 -196t39.5 -195.5t107 -160.5t161 -107.5t196 -40
t195.5 40t160.5 107.5t107.5 160.5t40 195.5t-40 196t-107.5 161t-160.5 107.5t-195.5 40zM670.5 656q31.5 0 53.5 -22t22 -53.5t-22 -53.5t-53.5 -22t-53.5 22t-22 53.5t22 53.5t53.5 22zM314 96q-48 0 -82 33.5t-34 81.5t34 82t82 34t81.5 -34t33.5 -82t-33.5 -81.5
t-81.5 -33.5zM533 135q-1 -8 -6.5 -13t-13.5 -5q-8 1 -13.5 6t-6.5 12l-17 143q-30 20 -56 39q-29 20 -46 33q-21 17 -24 33q-6 22 8 43q27 39 81 78q63 44 114 48h1q1 1 2 1q11 0 24 -17q2 -3 6 -8l84 -97h80q8 0 14 -5.5t6 -14t-6 -14.5t-14 -6h-89h-1h-1q-4 1 -7 2l-1 1
q-1 0 -2 1h-1l-63 51q-46 -17 -102 -59q44 -40 65 -58q8 -6 8 -16q-1 -34 -23 -178zM695 96q-48 0 -82 33.5t-34 81.5t34 82t82 34t82 -34t34 -82t-34 -81.5t-82 -33.5z" />
  </font>
</defs>
</svg>
